<svg width="96" height="96" viewBox="0 0 96 96" fill="none" xmlns="http://www.w3.org/2000/svg">
<path d="M86 48C86 46.6 86.8 45.4 87.8 44.6C86.2 24.2 69 8 48 8C38 8 29 11.6 22 17.6C22 17.8 22 17.8 22 18C22 20.2 20.2 22 18 22C17.8 22 17.8 22 17.6 22C11.6 29 8 38 8 48C8 64.4 17.8 78.4 32 84.6C32.6 84.2 33.4 84 34 84C35.8 84 37.2 85 37.8 86.6C41 87.4 44.6 88 48 88C69 88 86.2 71.8 87.8 51.4C86.8 50.6 86 49.4 86 48Z" fill="#BBDEFB"/>
<path d="M44.2 66.2C43 64.4 43 61.8 43.8 60C42.8 60 41.6 60.4 40.8 61C38 62.8 37 66.8 39.2 69.6C41 72.4 45 73.4 47.8 71.2C48.8 70.6 49.4 69.6 50 68.8C47.8 69 45.4 68 44.2 66.2ZM27 54.6C26.4 53 26.6 51.2 27.6 50C27 50 26 50 25.2 50.4C22.8 51.4 21.6 54 22.4 56.2C23.4 58.6 26 59.8 28.2 59C29.2 58.6 29.8 58 30 57.4C28.8 57.4 27.6 56.2 27 54.6ZM39 32C39.6 29.4 41.6 27.8 44 27.4C43.2 26.8 42.8 26.4 41.8 26.2C38.6 25.4 35 27.4 34.2 30.8C33.4 34.2 35.4 37.6 38.8 38.4C39.6 38.6 40.6 38.6 41.4 38.4C39.2 36.8 38.2 34.2 39 32Z" fill="#1E88E5"/>
<path d="M86 48C86 46.6 86.8 45.4 87.8 44.6C86.2 24.2 69 8 48 8C48 8 55.4 12.2 61.2 22C61.4 22 61.6 22 62 22C65.4 22 68 24.6 68 28C68 29.8 67.2 31.4 65.8 32.6C66.2 33.8 66.4 34.8 66.8 36C68.6 36.4 70 38 70 40C70 41.6 69.2 42.8 67.8 43.6C68 45 68 46.4 68 48C68 59 65 67.6 61.4 73.8C61.8 74.4 62 75.2 62 76C62 78.2 60.2 80 58 80C57.6 80 57.4 80 57 79.8C52.4 85.4 48 88 48 88C69 88 86.2 71.8 87.8 51.4C86.8 50.6 86 49.4 86 48ZM75 66C74.2 66 73.6 65.8 73 65.6C74.8 64.8 76 63 76 61C76 59 74.8 57.2 73 56.4C73.6 56.2 74.2 56 75 56C77.8 56 80 58.2 80 61C80 63.8 77.8 66 75 66Z" fill="#1E88E5"/>
</svg>
