<svg width="96" height="96" viewBox="0 0 96 96" fill="none" xmlns="http://www.w3.org/2000/svg">
<path d="M42 62C43.1046 62 44 61.1046 44 60C44 58.8954 43.1046 58 42 58C40.8954 58 40 58.8954 40 60C40 61.1046 40.8954 62 42 62Z" fill="#2196F3"/>
<path d="M22 62C23.1046 62 24 61.1046 24 60C24 58.8954 23.1046 58 22 58C20.8954 58 20 58.8954 20 60C20 61.1046 20.8954 62 22 62Z" fill="#2196F3"/>
<path d="M40 68C41.1046 68 42 67.1046 42 66C42 64.8954 41.1046 64 40 64C38.8954 64 38 64.8954 38 66C38 67.1046 38.8954 68 40 68Z" fill="#2196F3"/>
<path d="M38 74C39.1046 74 40 73.1046 40 72C40 70.8954 39.1046 70 38 70C36.8954 70 36 70.8954 36 72C36 73.1046 36.8954 74 38 74Z" fill="#2196F3"/>
<path d="M36 80C37.1046 80 38 79.1046 38 78C38 76.8954 37.1046 76 36 76C34.8954 76 34 76.8954 34 78C34 79.1046 34.8954 80 36 80Z" fill="#2196F3"/>
<path d="M20 68C21.1046 68 22 67.1046 22 66C22 64.8954 21.1046 64 20 64C18.8954 64 18 64.8954 18 66C18 67.1046 18.8954 68 20 68Z" fill="#2196F3"/>
<path d="M18 74C19.1046 74 20 73.1046 20 72C20 70.8954 19.1046 70 18 70C16.8954 70 16 70.8954 16 72C16 73.1046 16.8954 74 18 74Z" fill="#2196F3"/>
<path d="M16 80C17.1046 80 18 79.1046 18 78C18 76.8954 17.1046 76 16 76C14.8954 76 14 76.8954 14 78C14 79.1046 14.8954 80 16 80Z" fill="#2196F3"/>
<path d="M34 86C35.1046 86 36 85.1046 36 84C36 82.8954 35.1046 82 34 82C32.8954 82 32 82.8954 32 84C32 85.1046 32.8954 86 34 86Z" fill="#2196F3"/>
<path d="M14 86C15.1046 86 16 85.1046 16 84C16 82.8954 15.1046 82 14 82C12.8954 82 12 82.8954 12 84C12 85.1046 12.8954 86 14 86Z" fill="#2196F3"/>
<path d="M62 62C63.1046 62 64 61.1046 64 60C64 58.8954 63.1046 58 62 58C60.8954 58 60 58.8954 60 60C60 61.1046 60.8954 62 62 62Z" fill="#2196F3"/>
<path d="M60 68C61.1046 68 62 67.1046 62 66C62 64.8954 61.1046 64 60 64C58.8954 64 58 64.8954 58 66C58 67.1046 58.8954 68 60 68Z" fill="#2196F3"/>
<path d="M58 74C59.1046 74 60 73.1046 60 72C60 70.8954 59.1046 70 58 70C56.8954 70 56 70.8954 56 72C56 73.1046 56.8954 74 58 74Z" fill="#2196F3"/>
<path d="M56 80C57.1046 80 58 79.1046 58 78C58 76.8954 57.1046 76 56 76C54.8954 76 54 76.8954 54 78C54 79.1046 54.8954 80 56 80Z" fill="#2196F3"/>
<path d="M54 86C55.1046 86 56 85.1046 56 84C56 82.8954 55.1046 82 54 82C52.8954 82 52 82.8954 52 84C52 85.1046 52.8954 86 54 86Z" fill="#2196F3"/>
<path d="M44 56C45.1046 56 46 55.1046 46 54C46 52.8954 45.1046 52 44 52C42.8954 52 42 52.8954 42 54C42 55.1046 42.8954 56 44 56Z" fill="#2196F3"/>
<path d="M24 56C25.1046 56 26 55.1046 26 54C26 52.8954 25.1046 52 24 52C22.8954 52 22 52.8954 22 54C22 55.1046 22.8954 56 24 56Z" fill="#2196F3"/>
<path d="M64 56C65.1046 56 66 55.1046 66 54C66 52.8954 65.1046 52 64 52C62.8954 52 62 52.8954 62 54C62 55.1046 62.8954 56 64 56Z" fill="#2196F3"/>
<path d="M46 50C47.1046 50 48 49.1046 48 48C48 46.8954 47.1046 46 46 46C44.8954 46 44 46.8954 44 48C44 49.1046 44.8954 50 46 50Z" fill="#2196F3"/>
<path d="M26 50C27.1046 50 28 49.1046 28 48C28 46.8954 27.1046 46 26 46C24.8954 46 24 46.8954 24 48C24 49.1046 24.8954 50 26 50Z" fill="#2196F3"/>
<path d="M66 50C67.1046 50 68 49.1046 68 48C68 46.8954 67.1046 46 66 46C64.8954 46 64 46.8954 64 48C64 49.1046 64.8954 50 66 50Z" fill="#2196F3"/>
<path d="M30 68C31.1046 68 32 67.1046 32 66C32 64.8954 31.1046 64 30 64C28.8954 64 28 64.8954 28 66C28 67.1046 28.8954 68 30 68Z" fill="#2196F3"/>
<path d="M28 74C29.1046 74 30 73.1046 30 72C30 70.8954 29.1046 70 28 70C26.8954 70 26 70.8954 26 72C26 73.1046 26.8954 74 28 74Z" fill="#2196F3"/>
<path d="M50 68C51.1046 68 52 67.1046 52 66C52 64.8954 51.1046 64 50 64C48.8954 64 48 64.8954 48 66C48 67.1046 48.8954 68 50 68Z" fill="#2196F3"/>
<path d="M48 74C49.1046 74 50 73.1046 50 72C50 70.8954 49.1046 70 48 70C46.8954 70 46 70.8954 46 72C46 73.1046 46.8954 74 48 74Z" fill="#2196F3"/>
<path d="M26 80C27.1046 80 28 79.1046 28 78C28 76.8954 27.1046 76 26 76C24.8954 76 24 76.8954 24 78C24 79.1046 24.8954 80 26 80Z" fill="#2196F3"/>
<path d="M46 80C47.1046 80 48 79.1046 48 78C48 76.8954 47.1046 76 46 76C44.8954 76 44 76.8954 44 78C44 79.1046 44.8954 80 46 80Z" fill="#2196F3"/>
<path d="M52 62C53.1046 62 54 61.1046 54 60C54 58.8954 53.1046 58 52 58C50.8954 58 50 58.8954 50 60C50 61.1046 50.8954 62 52 62Z" fill="#2196F3"/>
<path d="M70 68C71.1046 68 72 67.1046 72 66C72 64.8954 71.1046 64 70 64C68.8954 64 68 64.8954 68 66C68 67.1046 68.8954 68 70 68Z" fill="#2196F3"/>
<path d="M68 74C69.1046 74 70 73.1046 70 72C70 70.8954 69.1046 70 68 70C66.8954 70 66 70.8954 66 72C66 73.1046 66.8954 74 68 74Z" fill="#2196F3"/>
<path d="M66 80C67.1046 80 68 79.1046 68 78C68 76.8954 67.1046 76 66 76C64.8954 76 64 76.8954 64 78C64 79.1046 64.8954 80 66 80Z" fill="#2196F3"/>
<path d="M72 62C73.1046 62 74 61.1046 74 60C74 58.8954 73.1046 58 72 58C70.8954 58 70 58.8954 70 60C70 61.1046 70.8954 62 72 62Z" fill="#2196F3"/>
<path d="M32 62C33.1046 62 34 61.1046 34 60C34 58.8954 33.1046 58 32 58C30.8954 58 30 58.8954 30 60C30 61.1046 30.8954 62 32 62Z" fill="#2196F3"/>
<path d="M54 56C55.1046 56 56 55.1046 56 54C56 52.8954 55.1046 52 54 52C52.8954 52 52 52.8954 52 54C52 55.1046 52.8954 56 54 56Z" fill="#2196F3"/>
<path d="M74 56C75.1046 56 76 55.1046 76 54C76 52.8954 75.1046 52 74 52C72.8954 52 72 52.8954 72 54C72 55.1046 72.8954 56 74 56Z" fill="#2196F3"/>
<path d="M34 56C35.1046 56 36 55.1046 36 54C36 52.8954 35.1046 52 34 52C32.8954 52 32 52.8954 32 54C32 55.1046 32.8954 56 34 56Z" fill="#2196F3"/>
<path d="M56 50C57.1046 50 58 49.1046 58 48C58 46.8954 57.1046 46 56 46C54.8954 46 54 46.8954 54 48C54 49.1046 54.8954 50 56 50Z" fill="#2196F3"/>
<path d="M76 50C77.1046 50 78 49.1046 78 48C78 46.8954 77.1046 46 76 46C74.8954 46 74 46.8954 74 48C74 49.1046 74.8954 50 76 50Z" fill="#2196F3"/>
<path d="M36 50C37.1046 50 38 49.1046 38 48C38 46.8954 37.1046 46 36 46C34.8954 46 34 46.8954 34 48C34 49.1046 34.8954 50 36 50Z" fill="#2196F3"/>
<path d="M58 44C59.1046 44 60 43.1046 60 42C60 40.8954 59.1046 40 58 40C56.8954 40 56 40.8954 56 42C56 43.1046 56.8954 44 58 44Z" fill="#2196F3"/>
<path d="M78 44C79.1046 44 80 43.1046 80 42C80 40.8954 79.1046 40 78 40C76.8954 40 76 40.8954 76 42C76 43.1046 76.8954 44 78 44Z" fill="#2196F3"/>
<path d="M38 44C39.1046 44 40 43.1046 40 42C40 40.8954 39.1046 40 38 40C36.8954 40 36 40.8954 36 42C36 43.1046 36.8954 44 38 44Z" fill="#2196F3"/>
<path d="M75.8 30C76 29 76 28 76 27C76 17.6 68.4 10 59 10C52.4 10 46.6 13.8 43.8 19.4C41.4 17.4 38.4 16 35 16C27.8 16 22 21.8 22 29C22 29.4 22 29.6 22 30C14.2 30 8 36.2 8 44C8 51.8 14.2 58 22 58H72C72.6 58 74 58 74 58C81.8 58 88 51.6 88 43.8C88 36.6 82.6 30.8 75.8 30Z" fill="#BBDEFB"/>
</svg>
