<svg width="96" height="96" viewBox="0 0 96 96" fill="none" xmlns="http://www.w3.org/2000/svg">
<path d="M48 36L54 30L48 24V14H38L32 8L26 14H16V24L10 30L16 36V46H26L32 52L38 46H48V36Z" fill="#FF9800"/>
<path d="M20 30C20 36.6 25.4 42 32 42C38.6 42 44 36.6 44 30C44 23.4 38.6 18 32 18C25.4 18 20 23.4 20 30Z" fill="#FFEB3B"/>
<path d="M75.8 40.2C76 39.4 76 38.8 76 38C76 30.2 69.8 24 62 24C56.4 24 51.6 27.2 49.4 32C47.4 29.6 44.4 28 41 28C35 28 30 33 30 39C30 39.4 30 39.6 30 40C23.4 40 18 45.4 18 52C18 58.6 23.4 64 30 64H30.2H74C80.6 64 86 58.6 86 52C86 46 81.6 41 75.8 40.2Z" fill="#BBDEFB"/>
<path d="M73.8 80.4C71.6 82.6 67.7999 82.6 65.5999 80.4C63.3999 78.2 63.3999 74.4 65.5999 72.2C67.9999 69.8 78 68 78 68C78 68 76.2 78 73.8 80.4ZM56 76C56 76 45.9999 77.8 43.5999 80.2C41.3999 82.4 41.3999 86.2 43.5999 88.4C45.7999 90.6 49.5999 90.6 51.7999 88.4C54.1999 86 56 76 56 76ZM36 68C36 68 26 69.8 23.6 72.2C21.4 74.4 21.4 78.2 23.6 80.4C25.8 82.6 29.5999 82.6 31.7999 80.4C34.1999 78 36 68 36 68Z" fill="#2196F3"/>
</svg>
