<svg width="96" height="96" viewBox="0 0 96 96" fill="none" xmlns="http://www.w3.org/2000/svg">
<path d="M59 34C49.6 34 42 41.6 42 51C42 60.4 49.6 68 59 68C68.4 68 76 60.4 76 51C76 41.6 68.4 34 59 34Z" fill="#BBDEFB"/>
<path d="M28 20C22.6957 20 17.6086 22.1071 13.8579 25.8579C10.1071 29.6086 8 34.6957 8 40C8 45.3043 10.1071 50.3914 13.8579 54.1421C17.6086 57.8929 22.6957 60 28 60C33.3043 60 38.3914 57.8929 42.1421 54.1421C45.8929 50.3914 48 45.3043 48 40C48 34.6957 45.8929 29.6086 42.1421 25.8579C38.3914 22.1071 33.3043 20 28 20V20Z" fill="#FFE082"/>
<path d="M28 20C21.457 20 15.665 23.157 12.016 28.016C15.358 25.506 19.498 24 24 24C35.045 24 44 32.955 44 44C44 48.502 42.494 52.642 39.984 55.984C44.843 52.335 48 46.543 48 40C48 28.955 39.045 20 28 20Z" fill="#FFD54F"/>
<path d="M17.5 40C16.837 40 16.2011 40.2634 15.7322 40.7322C15.2634 41.2011 15 41.837 15 42.5C15 43.163 15.2634 43.7989 15.7322 44.2678C16.2011 44.7366 16.837 45 17.5 45C18.163 45 18.7989 44.7366 19.2678 44.2678C19.7366 43.7989 20 43.163 20 42.5C20 41.837 19.7366 41.2011 19.2678 40.7322C18.7989 40.2634 18.163 40 17.5 40V40ZM40.5 45C39.837 45 39.2011 45.2634 38.7322 45.7322C38.2634 46.2011 38 46.837 38 47.5C38 48.163 38.2634 48.7989 38.7322 49.2678C39.2011 49.7366 39.837 50 40.5 50C41.163 50 41.7989 49.7366 42.2678 49.2678C42.7366 48.7989 43 48.163 43 47.5C43 46.837 42.7366 46.2011 42.2678 45.7322C41.7989 45.2634 41.163 45 40.5 45V45ZM25 27C23.9391 27 22.9217 27.4214 22.1716 28.1716C21.4214 28.9217 21 29.9391 21 31C21 32.0609 21.4214 33.0783 22.1716 33.8284C22.9217 34.5786 23.9391 35 25 35C26.0609 35 27.0783 34.5786 27.8284 33.8284C28.5786 33.0783 29 32.0609 29 31C29 29.9391 28.5786 28.9217 27.8284 28.1716C27.0783 27.4214 26.0609 27 25 27V27ZM26.5 45C25.5717 45 24.6815 45.3687 24.0251 46.0251C23.3687 46.6815 23 47.5717 23 48.5C23 49.4283 23.3687 50.3185 24.0251 50.9749C24.6815 51.6312 25.5717 52 26.5 52C27.4283 52 28.3185 51.6312 28.9749 50.9749C29.6313 50.3185 30 49.4283 30 48.5C30 47.5717 29.6313 46.6815 28.9749 46.0251C28.3185 45.3687 27.4283 45 26.5 45Z" fill="#FFCA28"/>
<path d="M26.5 34.5C24.567 34.5 23 32.933 23 31C23 29.067 24.567 27.5 26.5 27.5C26.668 27.5 26.828 27.526 26.99 27.549C26.401 27.209 25.729 27 25 27C22.791 27 21 28.791 21 31C21 33.209 22.791 35 25 35C25.729 35 26.401 34.791 26.99 34.451C26.828 34.474 26.668 34.5 26.5 34.5ZM40 47.5C40 46.476 40.618 45.597 41.5 45.211C41.193 45.077 40.856 45 40.5 45C39.119 45 38 46.119 38 47.5C38 48.881 39.119 50 40.5 50C40.856 50 41.193 49.923 41.5 49.789C40.618 49.402 40 48.524 40 47.5ZM17 42.5C17 41.476 17.618 40.597 18.5 40.211C18.193 40.077 17.856 40 17.5 40C16.119 40 15 41.119 15 42.5C15 43.881 16.119 45 17.5 45C17.856 45 18.193 44.923 18.5 44.789C17.618 44.402 17 43.524 17 42.5ZM25 48.5C25 46.917 26.058 45.596 27.5 45.162C27.182 45.066 26.85 45 26.5 45C24.567 45 23 46.567 23 48.5C23 50.433 24.567 52 26.5 52C26.85 52 27.182 51.934 27.5 51.838C26.058 51.404 25 50.083 25 48.5Z" fill="#E5B223"/>
<path d="M74 53.8C66.2 53.8 60 60 60 67.8C60 75.6 66.2 81.8 74 81.8C81.8 81.8 88 75.6 88 67.8C88 60 81.8 53.8 74 53.8ZM22 54C14.2 54 8 60.2 8 68C8 75.8 14.2 82 22 82C29.8 82 36 75.8 36 68C36 60.2 29.8 54 22 54Z" fill="#BBDEFB"/>
<path d="M35 40C27.8 40 22 45.8 22 53C22 60.2 27.8 66 35 66C42.2 66 48 60.2 48 53C48 45.8 42.2 40 35 40Z" fill="#BBDEFB"/>
<path d="M50 49.8C42.2 49.8 36 56 36 63.8C36 71.6 42.2 77.8 50 77.8C57.8 77.8 64 71.6 64 63.8C64 56 57.8 49.8 50 49.8Z" fill="#BBDEFB"/>
<path d="M14 74C14 78.4 17.6 82 22 82H72C76.4 82 80 78.4 80 74V72C80 67.6 76.4 64 72 64H22C17.6 64 14 67.6 14 72V74Z" fill="#BBDEFB"/>
</svg>
