<svg width="96" height="96" viewBox="0 0 96 96" fill="none" xmlns="http://www.w3.org/2000/svg">
<path d="M37 18C34.7675 18 32.5569 18.4397 30.4944 19.294C28.4318 20.1484 26.5578 21.4006 24.9792 22.9792C23.4006 24.5578 22.1484 26.4318 21.294 28.4944C20.4397 30.5569 20 32.7675 20 35C20 37.2325 20.4397 39.4431 21.294 41.5056C22.1484 43.5682 23.4006 45.4422 24.9792 47.0208C26.5578 48.5994 28.4318 49.8516 30.4944 50.706C32.5569 51.5603 34.7675 52 37 52C39.2325 52 41.4431 51.5603 43.5056 50.706C45.5682 49.8516 47.4422 48.5994 49.0208 47.0208C50.5994 45.4422 51.8516 43.5682 52.706 41.5056C53.5603 39.4431 54 37.2325 54 35C54 32.7675 53.5603 30.5569 52.706 28.4944C51.8516 26.4318 50.5994 24.5578 49.0208 22.9792C47.4422 21.4006 45.5682 20.1484 43.5056 19.294C41.4431 18.4397 39.2325 18 37 18Z" fill="#BBDEFB"/>
<path d="M38 50C34.287 50 30.726 51.475 28.1005 54.1005C25.475 56.726 24 60.287 24 64C24 67.713 25.475 71.274 28.1005 73.8995C30.726 76.525 34.287 78 38 78C41.713 78 45.274 76.525 47.8995 73.8995C50.525 71.274 52 67.713 52 64C52 60.287 50.525 56.726 47.8995 54.1005C45.274 51.475 41.713 50 38 50Z" fill="#BBDEFB"/>
<path d="M22 38C18.287 38 14.726 39.475 12.1005 42.1005C9.475 44.726 8 48.287 8 52C8 55.713 9.475 59.274 12.1005 61.8995C14.726 64.525 18.287 66 22 66C25.713 66 29.274 64.525 31.8995 61.8995C34.525 59.274 36 55.713 36 52C36 48.287 34.525 44.726 31.8995 42.1005C29.274 39.475 25.713 38 22 38V38ZM76 38C74.4241 38 72.8637 38.3104 71.4078 38.9134C69.9519 39.5165 68.629 40.4004 67.5147 41.5147C66.4004 42.629 65.5165 43.9519 64.9134 45.4078C64.3104 46.8637 64 48.4241 64 50C64 51.5759 64.3104 53.1363 64.9134 54.5922C65.5165 56.0481 66.4004 57.371 67.5147 58.4853C68.629 59.5996 69.9519 60.4835 71.4078 61.0866C72.8637 61.6896 74.4241 62 76 62C77.5759 62 79.1363 61.6896 80.5922 61.0866C82.0481 60.4835 83.371 59.5996 84.4853 58.4853C85.5996 57.371 86.4835 56.0481 87.0866 54.5922C87.6896 53.1363 88 51.5759 88 50C88 48.4241 87.6896 46.8637 87.0866 45.4078C86.4835 43.9519 85.5996 42.629 84.4853 41.5147C83.371 40.4004 82.0481 39.5165 80.5922 38.9134C79.1363 38.3104 77.5759 38 76 38V38Z" fill="#BBDEFB"/>
<path d="M60 48C56.8174 48 53.7652 49.2643 51.5147 51.5147C49.2643 53.7652 48 56.8174 48 60C48 63.1826 49.2643 66.2348 51.5147 68.4853C53.7652 70.7357 56.8174 72 60 72C63.1826 72 66.2348 70.7357 68.4853 68.4853C70.7357 66.2348 72 63.1826 72 60C72 56.8174 70.7357 53.7652 68.4853 51.5147C66.2348 49.2643 63.1826 48 60 48V48Z" fill="#BBDEFB"/>
<path d="M61 24C57.5522 24 54.2456 25.3696 51.8076 27.8076C49.3696 30.2456 48 33.5522 48 37C48 40.4478 49.3696 43.7544 51.8076 46.1924C54.2456 48.6304 57.5522 50 61 50C64.4478 50 67.7544 48.6304 70.1924 46.1924C72.6304 43.7544 74 40.4478 74 37C74 33.5522 72.6304 30.2456 70.1924 27.8076C67.7544 25.3696 64.4478 24 61 24V24Z" fill="#BBDEFB"/>
<path d="M46 34C44.1615 34 42.341 34.3621 40.6424 35.0657C38.9439 35.7693 37.4005 36.8005 36.1005 38.1005C34.8005 39.4005 33.7693 40.9439 33.0657 42.6424C32.3621 44.341 32 46.1615 32 48C32 49.8385 32.3621 51.659 33.0657 53.3576C33.7693 55.0561 34.8005 56.5995 36.1005 57.8995C37.4005 59.1995 38.9439 60.2307 40.6424 60.9343C42.341 61.6379 44.1615 62 46 62C47.8385 62 49.659 61.6379 51.3576 60.9343C53.0561 60.2307 54.5995 59.1995 55.8995 57.8995C57.1995 56.5995 58.2307 55.0561 58.9343 53.3576C59.6379 51.659 60 49.8385 60 48C60 46.1615 59.6379 44.341 58.9343 42.6424C58.2307 40.9439 57.1995 39.4005 55.8995 38.1005C54.5995 36.8005 53.0561 35.7693 51.3576 35.0657C49.659 34.3621 47.8385 34 46 34V34Z" fill="#BBDEFB"/>
</svg>
