<svg width="20" height="20" viewBox="0 0 20 20" fill="none" xmlns="http://www.w3.org/2000/svg">
<path d="M10.5974 7.7709C9.59333 7.50186 8.13239 7.55761 6.81731 7.63197C5.50224 7.70632 4.38775 7.83451 4.38775 7.83451C4.25006 7.85048 4.12042 7.9077 4.01582 7.99865C3.91122 8.08961 3.83655 8.21005 3.80161 8.34419C3.76667 8.47833 3.77309 8.61989 3.82002 8.75032C3.86696 8.88074 3.95222 8.99394 4.06462 9.07505C4.06462 9.07505 5.00186 9.75123 6.12085 10.4768C7.23983 11.2023 8.45247 11.9745 9.40282 12.2292C10.3532 12.4838 11.7895 12.4214 13.1213 12.3525C14.4531 12.2837 15.6029 12.1667 15.6029 12.1667C15.7408 12.1527 15.8712 12.0973 15.9771 12.0078C16.083 11.9183 16.1593 11.7989 16.1961 11.6653C16.2329 11.5316 16.2285 11.39 16.1834 11.2589C16.1383 11.1279 16.0546 11.0135 15.9433 10.9308C15.9433 10.9308 15.0423 10.2626 13.9405 9.54063C12.8388 8.8187 11.6015 8.03995 10.5974 7.7709ZM10.2415 9.09905L9.75869 10.901C9.30032 10.7782 7.95529 10.0275 6.86921 9.32331C6.64462 9.17769 6.65889 9.17735 6.45552 9.04101C6.67367 9.02514 6.65712 9.01816 6.89432 9.00474C8.16459 8.93292 9.68017 8.94864 10.2415 9.09905Z" fill="#F9F9F9"/>
<path d="M10 0.833313C9.8177 0.833313 9.64284 0.905746 9.5139 1.03468C9.38497 1.16361 9.31254 1.33848 9.31254 1.52081C9.31254 1.70315 9.38497 1.87802 9.5139 2.00695C9.64284 2.13588 9.8177 2.20831 10 2.20831C10.1824 2.20831 10.3572 2.13588 10.4862 2.00695C10.6151 1.87802 10.6875 1.70315 10.6875 1.52081C10.6875 1.33848 10.6151 1.16361 10.4862 1.03468C10.3572 0.905746 10.1824 0.833313 10 0.833313ZM12.5227 1.21108C12.3562 1.20807 12.1943 1.26556 12.067 1.37289C11.9397 1.48021 11.8557 1.63008 11.8305 1.79467C11.8054 1.95925 11.8408 2.12737 11.9302 2.26781C12.0197 2.40826 12.157 2.51148 12.3168 2.55833C14.7554 3.31676 16.6833 5.24467 17.4417 7.68325C17.4685 7.76948 17.512 7.84959 17.5698 7.919C17.6275 7.98841 17.6984 8.04577 17.7783 8.08779C17.8583 8.12982 17.9457 8.15569 18.0356 8.16392C18.1255 8.17216 18.2162 8.1626 18.3024 8.1358C18.3887 8.109 18.4688 8.06547 18.5382 8.00771C18.6076 7.94994 18.6649 7.87907 18.7069 7.79914C18.749 7.71921 18.7748 7.63179 18.7831 7.54187C18.7913 7.45194 18.7817 7.36127 18.7549 7.27504C17.8615 4.40246 15.5976 2.1385 12.725 1.2451C12.6596 1.2237 12.5914 1.21224 12.5227 1.21108ZM7.45683 1.21198C7.39504 1.21479 7.33391 1.22593 7.27511 1.2451C4.40252 2.13851 2.13857 4.40246 1.24516 7.27504C1.21834 7.36128 1.20877 7.45195 1.217 7.54188C1.22523 7.6318 1.25109 7.71923 1.29311 7.79917C1.33513 7.8791 1.39248 7.94997 1.46189 8.00774C1.5313 8.06551 1.61141 8.10904 1.69765 8.13584C1.78388 8.16265 1.87455 8.1722 1.96448 8.16397C2.05441 8.15573 2.14183 8.12986 2.22176 8.08783C2.30169 8.0458 2.37256 7.98844 2.43032 7.91902C2.48808 7.8496 2.5316 7.76949 2.55839 7.68325C3.31682 5.24467 5.24473 3.31676 7.68331 2.55833C7.84457 2.51082 7.98284 2.40587 8.07197 2.26332C8.1611 2.12078 8.19492 1.95052 8.16703 1.78473C8.13914 1.61895 8.05148 1.46912 7.92062 1.36358C7.78975 1.25805 7.62476 1.20411 7.45683 1.21198ZM1.52087 9.31248C1.33854 9.31248 1.16367 9.38491 1.03474 9.51384C0.905807 9.64277 0.833374 9.81764 0.833374 9.99998C0.833374 10.1823 0.905807 10.3572 1.03474 10.4861C1.16367 10.615 1.33854 10.6875 1.52087 10.6875C1.70321 10.6875 1.87808 10.615 2.00701 10.4861C2.13594 10.3572 2.20837 10.1823 2.20837 9.99998C2.20837 9.81764 2.13594 9.64277 2.00701 9.51384C1.87808 9.38491 1.70321 9.31248 1.52087 9.31248ZM18.4792 9.31248C18.2969 9.31248 18.122 9.38491 17.9931 9.51384C17.8641 9.64277 17.7917 9.81764 17.7917 9.99998C17.7917 10.1823 17.8641 10.3572 17.9931 10.4861C18.122 10.615 18.2969 10.6875 18.4792 10.6875C18.6615 10.6875 18.8364 10.615 18.9653 10.4861C19.0943 10.3572 19.1667 10.1823 19.1667 9.99998C19.1667 9.81764 19.0943 9.64277 18.9653 9.51384C18.8364 9.38491 18.6615 9.31248 18.4792 9.31248ZM1.8879 11.8244C1.78028 11.8261 1.67457 11.853 1.57927 11.9031C1.48398 11.9531 1.40176 12.0248 1.33923 12.1124C1.2767 12.2 1.23562 12.3011 1.21928 12.4075C1.20294 12.5138 1.2118 12.6226 1.24516 12.7249C2.13857 15.5975 4.40252 17.8615 7.27511 18.7549C7.36134 18.7817 7.452 18.7912 7.54193 18.783C7.63185 18.7748 7.71927 18.7489 7.7992 18.7069C7.87913 18.6649 7.95 18.6075 8.00777 18.5381C8.06553 18.4687 8.10906 18.3886 8.13586 18.3024C8.16266 18.2161 8.17222 18.1255 8.16398 18.0355C8.15575 17.9456 8.12988 17.8582 8.08785 17.7783C8.04583 17.6983 7.98848 17.6275 7.91906 17.5697C7.84965 17.5119 7.76954 17.4684 7.68331 17.4416C5.24473 16.6832 3.31682 14.7553 2.55839 12.3167C2.51576 12.1727 2.42713 12.0466 2.30605 11.9576C2.18497 11.8687 2.0381 11.8219 1.8879 11.8244ZM18.0916 11.8244C17.9449 11.8264 17.8027 11.8752 17.6858 11.9638C17.5689 12.0524 17.4833 12.176 17.4417 12.3167C16.6833 14.7553 14.7554 16.6832 12.3168 17.4416C12.2305 17.4684 12.1504 17.5119 12.081 17.5697C12.0116 17.6275 11.9542 17.6983 11.9122 17.7783C11.8702 17.8582 11.8443 17.9456 11.8361 18.0355C11.8279 18.1255 11.8374 18.2161 11.8642 18.3024C11.891 18.3886 11.9345 18.4687 11.9923 18.5381C12.0501 18.6075 12.1209 18.6649 12.2009 18.7069C12.2808 18.7489 12.3682 18.7748 12.4582 18.783C12.5481 18.7912 12.6387 18.7817 12.725 18.7549C15.5976 17.8615 17.8615 15.5975 18.7549 12.7249C18.7888 12.6209 18.7974 12.5104 18.78 12.4024C18.7626 12.2944 18.7197 12.1921 18.6548 12.1041C18.5899 12.016 18.505 11.9447 18.407 11.8961C18.3091 11.8474 18.201 11.8228 18.0916 11.8244ZM10 17.7916C9.8177 17.7916 9.64284 17.8641 9.5139 17.993C9.38497 18.1219 9.31254 18.2968 9.31254 18.4791C9.31254 18.6615 9.38497 18.8364 9.5139 18.9653C9.64284 19.0942 9.8177 19.1666 10 19.1666C10.1824 19.1666 10.3572 19.0942 10.4862 18.9653C10.6151 18.8364 10.6875 18.6615 10.6875 18.4791C10.6875 18.2968 10.6151 18.1219 10.4862 17.993C10.3572 17.8641 10.1824 17.7916 10 17.7916Z" fill="#BCCCF4"/>
</svg>
