<svg width="96" height="96" viewBox="0 0 96 96" fill="none" xmlns="http://www.w3.org/2000/svg">
<path d="M45.5 21C42.1848 21 39.0054 22.317 36.6612 24.6612C34.317 27.0054 33 30.1848 33 33.5C33 36.8152 34.317 39.9946 36.6612 42.3388C39.0054 44.683 42.1848 46 45.5 46C48.8152 46 51.9946 44.683 54.3388 42.3388C56.683 39.9946 58 36.8152 58 33.5C58 30.1848 56.683 27.0054 54.3388 24.6612C51.9946 22.317 48.8152 21 45.5 21Z" fill="#5E35B1"/>
<path d="M56.5 36C53.7152 36 51.0445 37.0979 49.0754 39.0521C47.1062 41.0062 46 43.6567 46 46.4204C46 49.184 47.1062 51.8345 49.0754 53.7887C51.0445 55.7429 53.7152 56.8407 56.5 56.8407C59.2848 56.8407 61.9555 55.7429 63.9246 53.7887C65.8938 51.8345 67 49.184 67 46.4204C67 43.6567 65.8938 41.0062 63.9246 39.0521C61.9555 37.0979 59.2848 36 56.5 36ZM17.5 36.1593C16.1211 36.1593 14.7557 36.4288 13.4818 36.9525C12.2079 37.4762 11.0504 38.2437 10.0754 39.2113C9.10036 40.179 8.32694 41.3277 7.79927 42.5919C7.27159 43.8562 7 45.2112 7 46.5796C7 47.9481 7.27159 49.3031 7.79927 50.5673C8.32694 51.8316 9.10036 52.9803 10.0754 53.948C11.0504 54.9156 12.2079 55.6831 13.4818 56.2068C14.7557 56.7305 16.1211 57 17.5 57C18.8789 57 20.2443 56.7305 21.5182 56.2068C22.7921 55.6831 23.9496 54.9156 24.9246 53.948C25.8996 52.9803 26.6731 51.8316 27.2007 50.5673C27.7284 49.3031 28 47.9481 28 46.5796C28 45.2112 27.7284 43.8562 27.2007 42.5919C26.6731 41.3277 25.8996 40.179 24.9246 39.2113C23.9496 38.2437 22.7921 37.4762 21.5182 36.9525C20.2443 36.4288 18.8789 36.1593 17.5 36.1593Z" fill="#5E35B1"/>
<path d="M27.5 25C24.9804 25 22.5641 26.0536 20.7825 27.9289C19.0009 29.8043 18 32.3478 18 35C18 37.6522 19.0009 40.1957 20.7825 42.0711C22.5641 43.9464 24.9804 45 27.5 45C30.0196 45 32.4359 43.9464 34.2175 42.0711C35.9991 40.1957 37 37.6522 37 35C37 32.3478 35.9991 29.8043 34.2175 27.9289C32.4359 26.0536 30.0196 25 27.5 25Z" fill="#5E35B1"/>
<path d="M38.5 33C35.7152 33 33.0445 34.1062 31.0754 36.0754C29.1062 38.0445 28 40.7152 28 43.5C28 46.2848 29.1062 48.9555 31.0754 50.9246C33.0445 52.8937 35.7152 54 38.5 54C41.2848 54 43.9555 52.8937 45.9246 50.9246C47.8938 48.9555 49 46.2848 49 43.5C49 40.7152 47.8938 38.0445 45.9246 36.0754C43.9555 34.1062 41.2848 33 38.5 33Z" fill="#5E35B1"/>
<path d="M12 50.7778C12 54.214 14.6594 57 17.9394 57H55.0606C58.3406 57 61 54.214 61 50.7778V49.2222C61 45.786 58.3406 43 55.0606 43H17.9394C14.6594 43 12 45.786 12 49.2222V50.7778Z" fill="#5E35B1"/>
<path d="M60 27C55.4913 27 51.1673 28.7911 47.9792 31.9792C44.7911 35.1673 43 39.4913 43 44C43 48.5087 44.7911 52.8327 47.9792 56.0208C51.1673 59.2089 55.4913 61 60 61C64.5087 61 68.8327 59.2089 72.0208 56.0208C75.2089 52.8327 77 48.5087 77 44C77 39.4913 75.2089 35.1673 72.0208 31.9792C68.8327 28.7911 64.5087 27 60 27Z" fill="#BBDEFB"/>
<path d="M75 46.786C71.287 46.786 67.726 48.261 65.1005 50.8865C62.475 53.512 61 57.073 61 60.786C61 64.499 62.475 68.06 65.1005 70.6855C67.726 73.311 71.287 74.786 75 74.786C78.713 74.786 82.274 73.311 84.8995 70.6855C87.525 68.06 89 64.499 89 60.786C89 57.073 87.525 53.512 84.8995 50.8865C82.274 48.261 78.713 46.786 75 46.786ZM23 47C21.1615 47 19.341 47.3621 17.6424 48.0657C15.9439 48.7693 14.4005 49.8005 13.1005 51.1005C11.8005 52.4005 10.7693 53.9439 10.0657 55.6424C9.36212 57.341 9 59.1615 9 61C9 62.8385 9.36212 64.659 10.0657 66.3576C10.7693 68.0561 11.8005 69.5995 13.1005 70.8995C14.4005 72.1995 15.9439 73.2308 17.6424 73.9343C19.341 74.6379 21.1615 75 23 75C24.8385 75 26.659 74.6379 28.3576 73.9343C30.0561 73.2308 31.5995 72.1995 32.8995 70.8995C34.1995 69.5995 35.2307 68.0561 35.9343 66.3576C36.6379 64.659 37 62.8385 37 61C37 59.1615 36.6379 57.341 35.9343 55.6424C35.2307 53.9439 34.1995 52.4005 32.8995 51.1005C31.5995 49.8005 30.0561 48.7693 28.3576 48.0657C26.659 47.3621 24.8385 47 23 47Z" fill="#BBDEFB"/>
<path d="M36 33C32.5522 33 29.2456 34.3696 26.8076 36.8076C24.3696 39.2456 23 42.5522 23 46C23 49.4478 24.3696 52.7544 26.8076 55.1924C29.2456 57.6304 32.5522 59 36 59C39.4478 59 42.7544 57.6304 45.1924 55.1924C47.6304 52.7544 49 49.4478 49 46C49 42.5522 47.6304 39.2456 45.1924 36.8076C42.7544 34.3696 39.4478 33 36 33Z" fill="#BBDEFB"/>
<path d="M51 42.786C47.287 42.786 43.726 44.261 41.1005 46.8865C38.475 49.512 37 53.073 37 56.786C37 60.499 38.475 64.06 41.1005 66.6855C43.726 69.311 47.287 70.786 51 70.786C54.713 70.786 58.274 69.311 60.8995 66.6855C63.525 64.06 65 60.499 65 56.786C65 53.073 63.525 49.512 60.8995 46.8865C58.274 44.261 54.713 42.786 51 42.786Z" fill="#BBDEFB"/>
<path d="M15 67C15 71.418 18.582 75 23 75H73C77.418 75 81 71.418 81 67V65C81 60.582 77.418 57 73 57H23C18.582 57 15 60.582 15 65V67Z" fill="#BBDEFB"/>
</svg>
