<svg width="96" height="96" viewBox="0 0 96 96" fill="none" xmlns="http://www.w3.org/2000/svg">
<path d="M37 8C32.4913 8 28.1673 9.79107 24.9792 12.9792C21.7911 16.1673 20 20.4913 20 25C20 29.5087 21.7911 33.8327 24.9792 37.0208C28.1673 40.2089 32.4913 42 37 42C41.5087 42 45.8327 40.2089 49.0208 37.0208C52.2089 33.8327 54 29.5087 54 25C54 20.4913 52.2089 16.1673 49.0208 12.9792C45.8327 9.79107 41.5087 8 37 8Z" fill="#BBDEFB"/>
<path d="M38 40C34.287 40 30.726 41.475 28.1005 44.1005C25.475 46.726 24 50.287 24 54C24 57.713 25.475 61.274 28.1005 63.8995C30.726 66.525 34.287 68 38 68C41.713 68 45.274 66.525 47.8995 63.8995C50.525 61.274 52 57.713 52 54C52 50.287 50.525 46.726 47.8995 44.1005C45.274 41.475 41.713 40 38 40Z" fill="#BBDEFB"/>
<path d="M22 28C18.287 28 14.726 29.475 12.1005 32.1005C9.475 34.726 8 38.287 8 42C8 45.713 9.475 49.274 12.1005 51.8995C14.726 54.525 18.287 56 22 56C25.713 56 29.274 54.525 31.8995 51.8995C34.525 49.274 36 45.713 36 42C36 38.287 34.525 34.726 31.8995 32.1005C29.274 29.475 25.713 28 22 28ZM76 28C72.8174 28 69.7652 29.2643 67.5147 31.5147C65.2643 33.7652 64 36.8174 64 40C64 43.1826 65.2643 46.2348 67.5147 48.4853C69.7652 50.7357 72.8174 52 76 52C79.1826 52 82.2348 50.7357 84.4853 48.4853C86.7357 46.2348 88 43.1826 88 40C88 36.8174 86.7357 33.7652 84.4853 31.5147C82.2348 29.2643 79.1826 28 76 28Z" fill="#BBDEFB"/>
<path d="M60 38C58.4241 38 56.8637 38.3104 55.4078 38.9134C53.9519 39.5165 52.629 40.4004 51.5147 41.5147C50.4004 42.629 49.5165 43.9519 48.9134 45.4078C48.3104 46.8637 48 48.4241 48 50C48 51.5759 48.3104 53.1363 48.9134 54.5922C49.5165 56.0481 50.4004 57.371 51.5147 58.4853C52.629 59.5996 53.9519 60.4835 55.4078 61.0866C56.8637 61.6896 58.4241 62 60 62C61.5759 62 63.1363 61.6896 64.5922 61.0866C66.0481 60.4835 67.371 59.5996 68.4853 58.4853C69.5996 57.371 70.4835 56.0481 71.0866 54.5922C71.6896 53.1363 72 51.5759 72 50C72 48.4241 71.6896 46.8637 71.0866 45.4078C70.4835 43.9519 69.5996 42.629 68.4853 41.5147C67.371 40.4004 66.0481 39.5165 64.5922 38.9134C63.1363 38.3104 61.5759 38 60 38Z" fill="#BBDEFB"/>
<path d="M61 14C57.5522 14 54.2456 15.3696 51.8076 17.8076C49.3696 20.2456 48 23.5522 48 27C48 30.4478 49.3696 33.7544 51.8076 36.1924C54.2456 38.6304 57.5522 40 61 40C64.4478 40 67.7544 38.6304 70.1924 36.1924C72.6304 33.7544 74 30.4478 74 27C74 23.5522 72.6304 20.2456 70.1924 17.8076C67.7544 15.3696 64.4478 14 61 14Z" fill="#BBDEFB"/>
<path d="M46 24C44.1615 24 42.341 24.3621 40.6424 25.0657C38.9439 25.7693 37.4005 26.8005 36.1005 28.1005C34.8005 29.4005 33.7693 30.9439 33.0657 32.6424C32.3621 34.341 32 36.1615 32 38C32 39.8385 32.3621 41.659 33.0657 43.3576C33.7693 45.0561 34.8005 46.5995 36.1005 47.8995C37.4005 49.1995 38.9439 50.2307 40.6424 50.9343C42.341 51.6379 44.1615 52 46 52C47.8385 52 49.659 51.6379 51.3576 50.9343C53.0561 50.2307 54.5995 49.1995 55.8995 47.8995C57.1995 46.5995 58.2307 45.0561 58.9343 43.3576C59.6379 41.659 60 39.8385 60 38C60 36.1615 59.6379 34.341 58.9343 32.6424C58.2307 30.9439 57.1995 29.4005 55.8995 28.1005C54.5995 26.8005 53.0561 25.7693 51.3576 25.0657C49.659 24.3621 47.8385 24 46 24Z" fill="#BBDEFB"/>
<path d="M44 88L48 74H42L50 58H58L50.812 70H58L44 88ZM65.188 78L69.188 64H63.188L71.188 48H79.188L72 60H79.188L65.188 78Z" fill="#D500F9"/>
</svg>
