<svg width="96" height="96" viewBox="0 0 96 96" fill="none" xmlns="http://www.w3.org/2000/svg">
<path d="M59 14C49.6 14 42 21.6 42 31C42 40.4 49.6 48 59 48C68.4 48 76 40.4 76 31C76 21.6 68.4 14 59 14Z" fill="#BBDEFB"/>
<path d="M74 33.8C66.2 33.8 60 40 60 47.8C60 55.6 66.2 61.8 74 61.8C81.8 61.8 88 55.6 88 47.8C88 40 81.8 33.8 74 33.8ZM22 34C14.2 34 8 40.2 8 48C8 55.8 14.2 62 22 62C29.8 62 36 55.8 36 48C36 40.2 29.8 34 22 34Z" fill="#BBDEFB"/>
<path d="M35 20C27.8 20 22 25.8 22 33C22 40.2 27.8 46 35 46C42.2 46 48 40.2 48 33C48 25.8 42.2 20 35 20Z" fill="#BBDEFB"/>
<path d="M50 29.8C42.2 29.8 36 36 36 43.8C36 51.6 42.2 57.8 50 57.8C57.8 57.8 64 51.6 64 43.8C64 36 57.8 29.8 50 29.8Z" fill="#BBDEFB"/>
<path d="M14 54C14 58.4 17.6 62 22 62H72C76.4 62 80 58.4 80 54V52C80 47.6 76.4 44 72 44H22C17.6 44 14 47.6 14 52V54Z" fill="#BBDEFB"/>
<path d="M49.8 80.4C47.6 82.6 43.8 82.6 41.6 80.4C39.4 78.2 39.4 74.4 41.6 72.2C44 69.8 54 68 54 68C54 68 52.2 78 49.8 80.4Z" fill="#2196F3"/>
</svg>
