<svg width="22" height="22" viewBox="0 0 22 22" fill="none" xmlns="http://www.w3.org/2000/svg">
<path d="M1.6536 0.320343C1.38835 0.320413 1.12915 0.399584 0.909141 0.547736C0.689128 0.695887 0.518297 0.906287 0.418487 1.15204C0.318678 1.39779 0.294426 1.66772 0.348831 1.92732C0.403236 2.18693 0.533827 2.42441 0.723908 2.60941L9.11453 11L0.723908 19.3907C0.595943 19.5135 0.493779 19.6607 0.423399 19.8235C0.353019 19.9863 0.315839 20.1616 0.314034 20.339C0.312229 20.5164 0.345837 20.6923 0.412889 20.8566C0.479941 21.0208 0.57909 21.17 0.704529 21.2954C0.829967 21.4209 0.979173 21.52 1.14341 21.5871C1.30765 21.6541 1.48361 21.6877 1.661 21.6859C1.83839 21.6841 2.01363 21.647 2.17647 21.5766C2.33931 21.5062 2.48646 21.404 2.60932 21.2761L10.9999 12.8854L19.3906 21.2761C19.5134 21.404 19.6606 21.5062 19.8234 21.5766C19.9863 21.647 20.1615 21.6841 20.3389 21.686C20.5163 21.6878 20.6923 21.6541 20.8565 21.5871C21.0207 21.52 21.1699 21.4209 21.2954 21.2955C21.4208 21.17 21.52 21.0208 21.587 20.8566C21.6541 20.6923 21.6877 20.5164 21.6859 20.339C21.6841 20.1616 21.6469 19.9863 21.5765 19.8235C21.5061 19.6607 21.404 19.5135 21.276 19.3907L12.8854 11L21.276 2.60941C21.4687 2.42212 21.6003 2.181 21.6535 1.91764C21.7068 1.65428 21.6793 1.38097 21.5746 1.13352C21.4698 0.886074 21.2928 0.676035 21.0667 0.530929C20.8405 0.385824 20.5758 0.312422 20.3072 0.320343C19.9608 0.330664 19.6321 0.475437 19.3906 0.723989L10.9999 9.11461L2.60932 0.723989C2.48507 0.596263 2.33648 0.494736 2.17233 0.425407C2.00817 0.356078 1.83179 0.320353 1.6536 0.320343Z" fill="#C4C4C4"/>
</svg>
