<svg width="22" height="22" viewBox="0 0 22 22" fill="none" xmlns="http://www.w3.org/2000/svg">
<path d="M11 0C4.92525 0 0 4.92525 0 11C0 17.0748 4.92525 22 11 22C17.0748 22 22 17.0748 22 11C22 4.92525 17.0748 0 11 0ZM15.3148 14.0186C15.6732 14.377 15.6732 14.9563 15.3148 15.3148C15.136 15.4935 14.9013 15.5833 14.6667 15.5833C14.432 15.5833 14.1973 15.4935 14.0186 15.3148L11 12.2962L7.98142 15.3148C7.80267 15.4935 7.568 15.5833 7.33333 15.5833C7.09867 15.5833 6.864 15.4935 6.68525 15.3148C6.32683 14.9563 6.32683 14.377 6.68525 14.0186L9.70383 11L6.68525 7.98142C6.32683 7.623 6.32683 7.04367 6.68525 6.68525C7.04367 6.32683 7.623 6.32683 7.98142 6.68525L11 9.70383L14.0186 6.68525C14.377 6.32683 14.9563 6.32683 15.3148 6.68525C15.6732 7.04367 15.6732 7.623 15.3148 7.98142L12.2962 11L15.3148 14.0186Z" fill="#FF0C0C"/>
</svg>
