<svg width="23" height="22" viewBox="0 0 23 22" fill="none" xmlns="http://www.w3.org/2000/svg">
<path d="M18 0V2H23V0H18ZM7 0.09375L6.15625 1.46875C6.15625 1.46875 4.64453 3.91016 3.125 6.78125C2.36719 8.21875 1.58203 9.76562 1 11.1875C0.417969 12.6094 0 13.8711 0 15C0 18.8555 3.14453 22 7 22C10.8555 22 14 18.8555 14 15C14 13.8711 13.582 12.6094 13 11.1875C12.418 9.76562 11.6328 8.21875 10.875 6.78125C9.35547 3.91016 7.84375 1.46875 7.84375 1.46875L7 0.09375ZM7 4C7.51562 4.85938 8.0625 5.71094 9.125 7.71875C9.69922 8.80859 10.2422 9.92188 10.7188 11H3.28125C3.75781 9.92188 4.30078 8.80859 4.875 7.71875C5.9375 5.71094 6.48438 4.85938 7 4ZM20 5V7H23V5H20ZM18 10V12H23V10H18ZM20 15V17H23V15H20ZM18 20V22H23V20H18Z" fill="white"/>
</svg>
