<svg width="96" height="96" viewBox="0 0 96 96" fill="none" xmlns="http://www.w3.org/2000/svg">
<path d="M52 62C53.1046 62 54 61.1046 54 60C54 58.8954 53.1046 58 52 58C50.8954 58 50 58.8954 50 60C50 61.1046 50.8954 62 52 62Z" fill="#2196F3"/>
<path d="M50 68C51.1046 68 52 67.1046 52 66C52 64.8954 51.1046 64 50 64C48.8954 64 48 64.8954 48 66C48 67.1046 48.8954 68 50 68Z" fill="#2196F3"/>
<path d="M48 74C49.1046 74 50 73.1046 50 72C50 70.8954 49.1046 70 48 70C46.8954 70 46 70.8954 46 72C46 73.1046 46.8954 74 48 74Z" fill="#2196F3"/>
<path d="M46 80C47.1046 80 48 79.1046 48 78C48 76.8954 47.1046 76 46 76C44.8954 76 44 76.8954 44 78C44 79.1046 44.8954 80 46 80Z" fill="#2196F3"/>
<path d="M44 86C45.1046 86 46 85.1046 46 84C46 82.8954 45.1046 82 44 82C42.8954 82 42 82.8954 42 84C42 85.1046 42.8954 86 44 86Z" fill="#2196F3"/>
<path d="M38 68C39.1046 68 40 67.1046 40 66C40 64.8954 39.1046 64 38 64C36.8954 64 36 64.8954 36 66C36 67.1046 36.8954 68 38 68Z" fill="#2196F3"/>
<path d="M36 74C37.1046 74 38 73.1046 38 72C38 70.8954 37.1046 70 36 70C34.8954 70 34 70.8954 34 72C34 73.1046 34.8954 74 36 74Z" fill="#2196F3"/>
<path d="M34 80C35.1046 80 36 79.1046 36 78C36 76.8954 35.1046 76 34 76C32.8954 76 32 76.8954 32 78C32 79.1046 32.8954 80 34 80Z" fill="#2196F3"/>
<path d="M40 62C41.1046 62 42 61.1046 42 60C42 58.8954 41.1046 58 40 58C38.8954 58 38 58.8954 38 60C38 61.1046 38.8954 62 40 62Z" fill="#2196F3"/>
<path d="M54 56C55.1046 56 56 55.1046 56 54C56 52.8954 55.1046 52 54 52C52.8954 52 52 52.8954 52 54C52 55.1046 52.8954 56 54 56Z" fill="#2196F3"/>
<path d="M42 56C43.1046 56 44 55.1046 44 54C44 52.8954 43.1046 52 42 52C40.8954 52 40 52.8954 40 54C40 55.1046 40.8954 56 42 56Z" fill="#2196F3"/>
<path d="M75.8 30C76 29 76 28 76 27C76 17.6 68.4 10 59 10C52.4 10 46.6 13.8 43.8 19.4C41.4 17.4 38.4 16 35 16C27.8 16 22 21.8 22 29C22 29.4 22 29.6 22 30C14.2 30 8 36.2 8 44C8 51.8 14.2 58 22 58H72C72.6 58 74 58 74 58C81.8 58 88 51.6 88 43.8C88 36.6 82.6 30.8 75.8 30Z" fill="#BBDEFB"/>
</svg>
