<svg width="96" height="96" viewBox="0 0 96 96" fill="none" xmlns="http://www.w3.org/2000/svg">
<path d="M59 12C54.4913 12 50.1673 13.7911 46.9792 16.9792C43.7911 20.1673 42 24.4913 42 29C42 33.5087 43.7911 37.8327 46.9792 41.0208C50.1673 44.2089 54.4913 46 59 46C63.5087 46 67.8327 44.2089 71.0208 41.0208C74.2089 37.8327 76 33.5087 76 29C76 24.4913 74.2089 20.1673 71.0208 16.9792C67.8327 13.7911 63.5087 12 59 12Z" fill="#BBDEFB"/>
<path d="M74 31.786C72.1615 31.786 70.341 32.1481 68.6424 32.8517C66.9439 33.5553 65.4005 34.5865 64.1005 35.8865C62.8005 37.1865 61.7693 38.7299 61.0657 40.4284C60.3621 42.127 60 43.9475 60 45.786C60 47.6245 60.3621 49.445 61.0657 51.1436C61.7693 52.8421 62.8005 54.3855 64.1005 55.6855C65.4005 56.9855 66.9439 58.0168 68.6424 58.7203C70.341 59.4239 72.1615 59.786 74 59.786C75.8385 59.786 77.659 59.4239 79.3576 58.7203C81.0561 58.0168 82.5995 56.9855 83.8995 55.6855C85.1995 54.3855 86.2307 52.8421 86.9343 51.1436C87.6379 49.445 88 47.6245 88 45.786C88 43.9475 87.6379 42.127 86.9343 40.4284C86.2307 38.7299 85.1995 37.1865 83.8995 35.8865C82.5995 34.5865 81.0561 33.5553 79.3576 32.8517C77.659 32.1481 75.8385 31.786 74 31.786ZM22 32C18.287 32 14.726 33.475 12.1005 36.1005C9.475 38.726 8 42.287 8 46C8 49.713 9.475 53.274 12.1005 55.8995C14.726 58.525 18.287 60 22 60C25.713 60 29.274 58.525 31.8995 55.8995C34.525 53.274 36 49.713 36 46C36 42.287 34.525 38.726 31.8995 36.1005C29.274 33.475 25.713 32 22 32Z" fill="#BBDEFB"/>
<path d="M35 18C31.5522 18 28.2456 19.3696 25.8076 21.8076C23.3696 24.2456 22 27.5522 22 31C22 34.4478 23.3696 37.7544 25.8076 40.1924C28.2456 42.6304 31.5522 44 35 44C38.4478 44 41.7544 42.6304 44.1924 40.1924C46.6304 37.7544 48 34.4478 48 31C48 27.5522 46.6304 24.2456 44.1924 21.8076C41.7544 19.3696 38.4478 18 35 18Z" fill="#BBDEFB"/>
<path d="M50 27.786C48.1615 27.786 46.341 28.1481 44.6424 28.8517C42.9439 29.5553 41.4005 30.5865 40.1005 31.8865C38.8005 33.1865 37.7693 34.7299 37.0657 36.4284C36.3621 38.127 36 39.9475 36 41.786C36 43.6245 36.3621 45.445 37.0657 47.1436C37.7693 48.8421 38.8005 50.3855 40.1005 51.6855C41.4005 52.9855 42.9439 54.0168 44.6424 54.7203C46.341 55.4239 48.1615 55.786 50 55.786C51.8385 55.786 53.659 55.4239 55.3576 54.7203C57.0561 54.0168 58.5995 52.9855 59.8995 51.6855C61.1995 50.3855 62.2307 48.8421 62.9343 47.1436C63.6379 45.445 64 43.6245 64 41.786C64 39.9475 63.6379 38.127 62.9343 36.4284C62.2307 34.7299 61.1995 33.1865 59.8995 31.8865C58.5995 30.5865 57.0561 29.5553 55.3576 28.8517C53.659 28.1481 51.8385 27.786 50 27.786Z" fill="#BBDEFB"/>
<path d="M14 52C14 56.418 17.582 60 22 60H72C76.418 60 80 56.418 80 52V50C80 45.582 76.418 42 72 42H22C17.582 42 14 45.582 14 50V52Z" fill="#BBDEFB"/>
<path d="M46 66H50V84H46V66Z" fill="#2196F3"/>
<path d="M39.2262 72.1584L41.2538 68.7104L56.7698 77.8347L54.7422 81.2827L39.2262 72.1584Z" fill="#2196F3"/>
<path d="M41.131 81.1495L39.1739 77.6633L54.87 68.8522L56.827 72.3385L41.131 81.1495Z" fill="#2196F3"/>
</svg>
