<svg width="12" height="18" viewBox="0 0 12 18" fill="none" xmlns="http://www.w3.org/2000/svg">
<path d="M5.99992 0.674805C2.78659 0.674805 0.173096 3.28992 0.173096 6.50325C0.173096 10.2391 5.14535 16.3076 5.35702 16.5635L5.99992 17.3431L6.64282 16.5635C6.85449 16.3068 11.8267 10.2391 11.8267 6.50325C11.8267 3.28909 9.21325 0.674805 5.99992 0.674805ZM5.99992 2.34147C8.29409 2.34147 10.1601 4.20909 10.1601 6.50325C10.1601 8.75742 7.56492 12.6343 5.99992 14.6885C4.43492 12.636 1.83976 8.76075 1.83976 6.50325C1.83976 4.20909 3.70575 2.34147 5.99992 2.34147ZM5.99992 4.41667C4.84909 4.41667 3.91659 5.34916 3.91659 6.5C3.91659 7.65083 4.84909 8.58333 5.99992 8.58333C7.15075 8.58333 8.08325 7.65083 8.08325 6.5C8.08325 5.34916 7.15075 4.41667 5.99992 4.41667Z" fill="white"/>
</svg>
