<svg width="33" height="23" viewBox="0 0 33 23" fill="none" xmlns="http://www.w3.org/2000/svg">
<path d="M16.8618 0C13.5482 0 10.8445 2.37109 10.1491 5.5C8.93708 5.98047 8.03584 6.87109 7.50752 8.0625C7.3094 8.03906 7.12683 8 6.91705 8C3.6345 8 0.950195 10.6992 0.950195 14C0.950195 17.3008 3.6345 20 6.91705 20H10.895V18H6.91705C4.71056 18 2.93915 16.2188 2.93915 14C2.93915 11.7812 4.71056 10 6.91705 10C7.2084 10 7.49198 10.0273 7.78722 10.0938L8.7817 10.3125L8.96816 9.34375C9.2129 8.23047 10.1025 7.35938 11.2057 7.09375L11.8584 6.9375L11.9516 6.25C12.3051 3.83594 14.3523 2 16.8618 2C18.808 2 20.4862 3.12109 21.3059 4.75L21.6788 5.53125L22.5179 5.25C22.953 5.09766 23.3803 5 23.8232 5C26.0296 5 27.8011 6.78125 27.8011 9C27.8011 8.99219 27.7855 9.07812 27.77 9.3125L27.7078 10.0312L28.3604 10.3125C29.7822 10.9219 30.7845 12.3398 30.7845 14C30.7845 16.2188 29.0131 18 26.8066 18H21.8342V20H26.8066C30.0891 20 32.7734 17.3008 32.7734 14C32.7734 11.8359 31.5109 10.0547 29.79 9C29.79 5.69922 27.1057 3 23.8232 3C23.392 3 23.0307 3.12891 22.6422 3.21875C21.3991 1.30078 19.3014 0 16.8618 0ZM13.8784 15V18H15.8673V15H13.8784ZM17.8563 17V20H19.8452V17H17.8563ZM13.8784 19V21H15.8673V19H13.8784ZM17.8563 21V23H19.8452V21H17.8563Z" fill="white"/>
</svg>
