<svg width="32" height="23" viewBox="0 0 32 23" fill="none" xmlns="http://www.w3.org/2000/svg">
<path d="M16.0498 0C12.841 0 10.0557 2.25781 9.30599 5.34375C8.06679 5.82422 7.03735 6.8125 6.50904 8.03125C3.02061 7.74609 0.138184 10.5547 0.138184 14C0.138184 16.9688 2.29417 19.4258 5.11056 19.9062V17.8438C3.4013 17.3984 2.12713 15.8594 2.12713 14C2.12713 11.793 3.91019 10 6.10503 10C6.37696 10 6.66054 10.0234 6.97519 10.0938L7.96967 10.3125L8.15613 9.34375C8.40087 8.23828 9.29434 7.35938 10.3937 7.09375L11.0463 6.9375L11.1396 6.28125C11.4969 3.84766 13.6063 2 16.0498 2C17.9338 2 19.6431 3.05469 20.4938 4.75L20.8668 5.53125L21.7058 5.25C22.172 5.08594 22.5954 5 23.0111 5C25.2059 5 26.989 6.79297 26.989 9C26.989 9.03906 26.9929 9.08984 26.989 9.125C26.9812 9.19141 26.9657 9.24219 26.9579 9.3125L26.8958 10.0312L27.5484 10.3125C29.0168 10.9414 29.9724 12.3945 29.9724 14C29.9724 15.8594 28.6982 17.3984 26.989 17.8438V19.9062C29.8054 19.4297 31.9614 16.9688 31.9614 14C31.9614 11.8359 30.8115 9.875 28.9779 8.8125C28.8731 5.59375 26.2354 3 23.0111 3C22.6226 3 22.2225 3.03906 21.8302 3.125C20.5482 1.17969 18.4078 0 16.0498 0ZM11.0774 12V14H13.0664V12H11.0774ZM19.0332 12V14H21.0221V12H19.0332ZM15.0553 13V16H17.0442V13H15.0553ZM7.0995 14V16H9.08845V14H7.0995ZM23.0111 14V16H25V14H23.0111ZM11.0774 15V18H13.0664V15H11.0774ZM19.0332 15V18H21.0221V15H19.0332ZM7.0995 17V20H9.08845V17H7.0995ZM15.0553 17V20H17.0442V17H15.0553ZM23.0111 17V20H25V17H23.0111ZM11.0774 19V23H13.0664V19H11.0774ZM19.0332 19V23H21.0221V19H19.0332ZM7.0995 21V23H9.08845V21H7.0995ZM15.0553 21V23H17.0442V21H15.0553ZM23.0111 21V23H25V21H23.0111Z" fill="white"/>
</svg>
