<svg width="27" height="26" viewBox="0 0 27 26" fill="none" xmlns="http://www.w3.org/2000/svg">
<path d="M12.6629 0V5H14.6519V0H12.6629ZM5.20438 3.09375L3.8059 4.5L7.31764 8.0625L8.74719 6.625L5.20438 3.09375ZM22.1104 3.09375L18.5676 6.625L19.9972 8.0625L23.5089 4.5L22.1104 3.09375ZM13.6574 6C9.82325 6 6.69609 9.14453 6.69609 13C6.69609 16.8555 9.82325 20 13.6574 20C17.4916 20 20.6187 16.8555 20.6187 13C20.6187 9.14453 17.4916 6 13.6574 6ZM13.6574 8C16.4155 8 18.6298 10.2266 18.6298 13C18.6298 15.7734 16.4155 18 13.6574 18C10.8993 18 8.68504 15.7734 8.68504 13C8.68504 10.2266 10.8993 8 13.6574 8ZM0.729248 12V14H5.70162V12H0.729248ZM21.6132 12V14H26.5856V12H21.6132ZM7.31764 17.9375L3.8059 21.5L5.20438 22.9062L8.74719 19.375L7.31764 17.9375ZM19.9972 17.9375L18.5676 19.375L22.1104 22.9062L23.5089 21.5L19.9972 17.9375ZM12.6629 21V26H14.6519V21H12.6629Z" fill="white"/>
</svg>
