<svg width="33" height="23" viewBox="0 0 33 23" fill="none" xmlns="http://www.w3.org/2000/svg">
<path d="M16.4531 0C13.2444 0 10.4591 2.25781 9.70932 5.34375C8.47011 5.82422 7.44067 6.8125 6.91236 8.03125C3.42393 7.74609 0.541504 10.5547 0.541504 14C0.541504 16.9688 2.69749 19.4258 5.51388 19.9062V17.8438C3.80462 17.3984 2.53045 15.8594 2.53045 14C2.53045 11.793 4.31351 10 6.50835 10C6.78028 10 7.06386 10.0234 7.37852 10.0938L8.37299 10.3125L8.55945 9.34375C8.80419 8.23828 9.69766 7.35938 10.797 7.09375L11.4496 6.9375L11.5429 6.28125C11.9003 3.84766 14.0096 2 16.4531 2C18.3372 2 20.0464 3.05469 20.8972 4.75L21.2701 5.53125L22.1092 5.25C22.5753 5.08594 22.9988 5 23.4144 5C25.6093 5 27.3923 6.79297 27.3923 9C27.3923 9.03906 27.3962 9.08984 27.3923 9.125C27.3845 9.19141 27.369 9.24219 27.3612 9.3125L27.2991 10.0312L27.9517 10.3125C29.4201 10.9414 30.3757 12.3945 30.3757 14C30.3757 15.8594 29.1016 17.3984 27.3923 17.8438V19.9062C30.2087 19.4297 32.3647 16.9688 32.3647 14C32.3647 11.8359 31.2148 9.875 29.3813 8.8125C29.2764 5.59375 26.6387 3 23.4144 3C23.0259 3 22.6258 3.03906 22.2335 3.125C20.9515 1.17969 18.8111 0 16.4531 0ZM11.4807 15V18H13.4697V15H11.4807ZM19.4365 15V18H21.4255V15H19.4365ZM7.50282 17V20H9.49177V17H7.50282ZM15.4586 17V20H17.4476V17H15.4586ZM23.4144 17V20H25.4034V17H23.4144ZM11.4807 19V21H13.4697V19H11.4807ZM19.4365 19V21H21.4255V19H19.4365ZM7.50282 21V23H9.49177V21H7.50282ZM15.4586 21V23H17.4476V21H15.4586ZM23.4144 21V23H25.4034V21H23.4144Z" fill="white"/>
</svg>
