<svg width="29" height="20" viewBox="0 0 29 20" fill="none" xmlns="http://www.w3.org/2000/svg">
<path d="M7.29823 0V3.20312C6.68337 3.33445 6.12928 3.56045 5.62006 3.89844L3.37084 1.63672L1.96459 3.05078L4.21381 5.3125C3.87769 5.82455 3.65294 6.38172 3.52234 7H0.336914V9H3.56507C3.69643 9.61516 3.87591 10.1819 4.20992 10.6914L1.96459 12.9492L2.55894 13.5469C2.41846 14.0089 2.32586 14.4924 2.32586 15C2.32586 17.757 4.55647 20 7.29823 20H23.2098C25.9516 20 28.1822 17.757 28.1822 15C28.1822 12.981 26.9747 11.191 25.1657 10.416C24.8843 7.99802 22.8789 6.10091 20.4226 6.00391C19.3664 4.15791 17.4081 3 15.254 3C15.0391 3 14.8308 3.028 14.6208 3.05078L13.2146 1.63672L10.9692 3.89453C10.4621 3.5585 9.89934 3.37415 9.28718 3.24219V0H7.29823ZM8.29271 5C9.05375 5 9.73636 5.28594 10.2603 5.75195C9.99821 6.15766 9.76918 6.5882 9.60961 7.05664C8.03536 7.32764 6.77456 8.53108 6.41059 10.0801C6.34508 10.092 6.28483 10.1183 6.22024 10.1328C5.66634 9.58926 5.30928 8.84639 5.30928 8C5.30928 6.33152 6.63344 5 8.29271 5ZM15.254 5C16.8502 5 18.2859 5.95559 18.9134 7.43359L19.2008 8.11133L20.0924 8.01562C20.1361 8.00863 20.1807 8 20.2264 8C21.8713 8 23.2107 9.34664 23.2137 10.9316L23.171 11.9082L23.944 12.1074C25.2677 12.4464 26.1932 13.636 26.1932 15C26.1932 16.654 24.8547 18 23.2098 18H7.29823C5.65337 18 4.31481 16.654 4.31481 15C4.31481 13.346 5.65337 12 7.29823 12H8.29271V11C8.29271 9.897 9.18491 8.99914 10.1923 8.99414L11.1868 9.04688L11.3558 8.20703C11.7277 6.34803 13.3675 5 15.254 5Z" fill="white"/>
</svg>
