<svg width="96" height="96" viewBox="0 0 96 96" fill="none" xmlns="http://www.w3.org/2000/svg">
<path d="M48 8C37.3913 8 27.2172 12.2143 19.7157 19.7157C12.2143 27.2172 8 37.3913 8 48C8 58.6087 12.2143 68.7828 19.7157 76.2843C27.2172 83.7857 37.3913 88 48 88C58.6087 88 68.7828 83.7857 76.2843 76.2843C83.7857 68.7828 88 58.6087 88 48C88 37.3913 83.7857 27.2172 76.2843 19.7157C68.7828 12.2143 58.6087 8 48 8Z" fill="#5E35B1"/>
<path d="M48 8C34.914 8 23.33 14.314 16.032 24.032C22.716 19.012 30.996 16 40 16C62.09 16 80 33.91 80 56C80 65.004 76.988 73.284 71.968 79.968C81.686 72.67 88 61.086 88 48C88 25.91 70.09 8 48 8Z" fill="#311B92"/>
<path d="M35 23C38.866 23 42 26.134 42 30C42 33.866 38.866 37 35 37C34.664 37 34.344 36.948 34.02 36.902C35.198 37.582 36.542 38 38 38C42.418 38 46 34.418 46 30C46 25.582 42.418 22 38 22C36.542 22 35.198 22.418 34.02 23.098C34.344 23.052 34.664 23 35 23ZM72 63C72 65.048 70.764 66.806 69 67.578C69.614 67.846 70.288 68 71 68C73.762 68 76 65.762 76 63C76 60.238 73.762 58 71 58C70.288 58 69.614 58.154 69 58.422C70.764 59.196 72 60.952 72 63ZM24 53C24 55.048 22.764 56.806 21 57.578C21.614 57.846 22.288 58 23 58C25.762 58 28 55.762 28 53C28 50.238 25.762 48 23 48C22.288 48 21.614 48.154 21 48.422C22.764 49.196 24 50.952 24 53ZM44 65C44 68.166 41.884 70.808 39 71.676C39.636 71.868 40.3 72 41 72C44.866 72 48 68.866 48 65C48 61.134 44.866 58 41 58C40.3 58 39.636 58.132 39 58.324C41.884 59.192 44 61.834 44 65Z" fill="#9575CD"/>
</svg>
