<svg width="26" height="26" viewBox="0 0 26 26" fill="none" xmlns="http://www.w3.org/2000/svg">
<path d="M13 0C5.83203 0 0 5.83203 0 13C0 20.168 5.83203 26 13 26C20.168 26 26 20.168 26 13C26 5.83203 20.168 0 13 0ZM13 2C19.0859 2 24 6.91406 24 13C24 19.0859 19.0859 24 13 24C6.91406 24 2 19.0859 2 13C2 6.91406 6.91406 2 13 2ZM17.2812 7.28125L13.5 11.0625C13.3398 11.0195 13.1719 11 13 11C11.9062 11 11 11.9062 11 13C11 13.1719 11.0195 13.3398 11.0625 13.5L9.28125 15.2812C8.875 15.0938 8.4375 15 8 15C7.23047 15 6.45703 15.293 5.875 15.875L7.28125 17.2812C7.67969 16.8828 8.32031 16.8828 8.71875 17.2812V17.3125C9.09375 17.7109 9.10938 18.3281 8.71875 18.7188L10.125 20.125C11.0391 19.2109 11.2383 17.832 10.7188 16.7188L12.5 14.9375C12.6602 14.9805 12.8281 15 13 15C14.0938 15 15 14.0938 15 13C15 12.8281 14.9805 12.6602 14.9375 12.5L18.7188 8.71875L17.2812 7.28125Z" fill="white"/>
</svg>
