<svg width="96" height="96" viewBox="0 0 96 96" fill="none" xmlns="http://www.w3.org/2000/svg">
<path d="M59 10C49.6 10 42 17.6 42 27C42 36.4 49.6 44 59 44C68.4 44 76 36.4 76 27C76 17.6 68.4 10 59 10Z" fill="#BBDEFB"/>
<path d="M74 29.8C66.2 29.8 60 36 60 43.8C60 51.6 66.2 57.8 74 57.8C81.8 57.8 88 51.6 88 43.8C88 36 81.8 29.8 74 29.8ZM22 30C14.2 30 8 36.2 8 44C8 51.8 14.2 58 22 58C29.8 58 36 51.8 36 44C36 36.2 29.8 30 22 30Z" fill="#BBDEFB"/>
<path d="M35 16C27.8 16 22 21.8 22 29C22 36.2 27.8 42 35 42C42.2 42 48 36.2 48 29C48 21.8 42.2 16 35 16Z" fill="#BBDEFB"/>
<path d="M50 25.8C42.2 25.8 36 32 36 39.8C36 47.6 42.2 53.8 50 53.8C57.8 53.8 64 47.6 64 39.8C64 32 57.8 25.8 50 25.8Z" fill="#BBDEFB"/>
<path d="M14 50C14 54.4 17.6 58 22 58H72C76.4 58 80 54.4 80 50V48C80 43.6 76.4 40 72 40H22C17.6 40 14 43.6 14 48V50Z" fill="#BBDEFB"/>
<path d="M70 74.4C67.8 76.6 64 76.6 61.8 74.4C59.6 72.2 59.6 68.4 61.8 66.2C64 63.8 74 62 74 62C74 62 72.2 72 70 74.4Z" fill="#2196F3"/>
<path d="M48 82.4C45.8 84.6 42 84.6 39.8 82.4C37.6 80.2 37.6 76.4 39.8 74.2C42 72 52.2 70.2 52.2 70.2C52.2 70.2 50.2 80 48 82.4Z" fill="#2196F3"/>
<path d="M27.7999 74.4C25.5999 76.6 21.8 76.6 19.6 74.4C17.4 72.2 17.4 68.4 19.6 66.2C21.8 64 32 62.2 32 62.2C32 62.2 30.1999 72 27.7999 74.4Z" fill="#2196F3"/>
</svg>
