<svg width="24" height="24" viewBox="0 0 24 24" fill="none" xmlns="http://www.w3.org/2000/svg">
<path d="M22.6368 10.1861L19.8 9.72239C19.6339 9.15311 19.4069 8.60591 19.1227 8.08799L20.7787 5.72783C20.9126 5.53727 20.8896 5.27759 20.7249 5.11247L18.8582 3.24671C18.6917 3.08063 18.4296 3.05903 18.2385 3.19679L15.9139 4.86767C15.3912 4.57871 14.8392 4.34927 14.2665 4.18271L13.7717 1.35743C13.7313 1.12799 13.5321 0.959991 13.2989 0.959991H10.6589C10.4237 0.959991 10.223 1.13039 10.1851 1.36271L9.72622 4.17263C9.15022 4.33823 8.59726 4.56527 8.07646 4.85039L5.75806 3.19439C5.56654 3.05759 5.3059 3.07967 5.13934 3.24527L3.27358 5.11103C3.10894 5.27567 3.0859 5.53487 3.21982 5.72543L4.85134 8.05967C4.56094 8.58527 4.32958 9.14159 4.1611 9.72047L1.36222 10.1866C1.13086 10.225 0.960938 10.4256 0.960938 10.6598V13.2998C0.960938 13.5326 1.12798 13.7318 1.35694 13.7726L4.15582 14.269C4.32334 14.8464 4.5547 15.4027 4.84606 15.9298L3.19438 18.24C3.05806 18.4306 3.07966 18.6922 3.24526 18.8587L5.1115 20.7264C5.27614 20.891 5.53582 20.9141 5.72638 20.7802L8.06398 19.1429C8.58862 19.4314 9.14302 19.6603 9.71758 19.8264L10.1861 22.6397C10.224 22.8706 10.4241 23.04 10.6589 23.04H13.2989C13.5317 23.04 13.7309 22.873 13.7712 22.644L14.2728 19.8168C14.8483 19.6474 15.3998 19.417 15.9192 19.128L18.2736 20.7797C18.4646 20.9146 18.7238 20.891 18.8889 20.7264L20.7552 18.8587C20.9213 18.6922 20.9429 18.4296 20.8051 18.2386L19.1261 15.9072C19.4107 15.3888 19.6368 14.8406 19.8014 14.2714L22.6421 13.7726C22.872 13.7323 23.039 13.5326 23.039 13.2998V10.6598C23.0395 10.4246 22.8691 10.224 22.6368 10.1861ZM12 15.36C10.1443 15.36 8.63998 13.8557 8.63998 12C8.63998 10.1443 10.1443 8.63999 12 8.63999C13.8557 8.63999 15.36 10.1443 15.36 12C15.36 13.8557 13.8557 15.36 12 15.36Z" fill="white"/>
</svg>
