<svg width="96" height="96" viewBox="0 0 96 96" fill="none" xmlns="http://www.w3.org/2000/svg">
<path d="M59 10C54.4913 10 50.1673 11.7911 46.9792 14.9792C43.7911 18.1673 42 22.4913 42 27C42 31.5087 43.7911 35.8327 46.9792 39.0208C50.1673 42.2089 54.4913 44 59 44C63.5087 44 67.8327 42.2089 71.0208 39.0208C74.2089 35.8327 76 31.5087 76 27C76 22.4913 74.2089 18.1673 71.0208 14.9792C67.8327 11.7911 63.5087 10 59 10Z" fill="#BBDEFB"/>
<path d="M74 29.786C70.287 29.786 66.726 31.261 64.1005 33.8865C61.475 36.512 60 40.073 60 43.786C60 47.499 61.475 51.06 64.1005 53.6855C66.726 56.311 70.287 57.786 74 57.786C77.713 57.786 81.274 56.311 83.8995 53.6855C86.525 51.06 88 47.499 88 43.786C88 40.073 86.525 36.512 83.8995 33.8865C81.274 31.261 77.713 29.786 74 29.786ZM22 30C20.1615 30 18.341 30.3621 16.6424 31.0657C14.9439 31.7693 13.4005 32.8005 12.1005 34.1005C10.8005 35.4005 9.76925 36.9439 9.06569 38.6424C8.36212 40.341 8 42.1615 8 44C8 45.8385 8.36212 47.659 9.06569 49.3576C9.76925 51.0561 10.8005 52.5995 12.1005 53.8995C13.4005 55.1995 14.9439 56.2308 16.6424 56.9343C18.341 57.6379 20.1615 58 22 58C23.8385 58 25.659 57.6379 27.3576 56.9343C29.0561 56.2308 30.5995 55.1995 31.8995 53.8995C33.1995 52.5995 34.2307 51.0561 34.9343 49.3576C35.6379 47.659 36 45.8385 36 44C36 42.1615 35.6379 40.341 34.9343 38.6424C34.2307 36.9439 33.1995 35.4005 31.8995 34.1005C30.5995 32.8005 29.0561 31.7693 27.3576 31.0657C25.659 30.3621 23.8385 30 22 30Z" fill="#BBDEFB"/>
<path d="M35 16C31.5522 16 28.2456 17.3696 25.8076 19.8076C23.3696 22.2456 22 25.5522 22 29C22 32.4478 23.3696 35.7544 25.8076 38.1924C28.2456 40.6304 31.5522 42 35 42C38.4478 42 41.7544 40.6304 44.1924 38.1924C46.6304 35.7544 48 32.4478 48 29C48 25.5522 46.6304 22.2456 44.1924 19.8076C41.7544 17.3696 38.4478 16 35 16Z" fill="#BBDEFB"/>
<path d="M50 25.786C48.1615 25.786 46.341 26.1481 44.6424 26.8517C42.9439 27.5553 41.4005 28.5865 40.1005 29.8865C38.8005 31.1865 37.7693 32.7299 37.0657 34.4284C36.3621 36.127 36 37.9475 36 39.786C36 41.6245 36.3621 43.445 37.0657 45.1436C37.7693 46.8421 38.8005 48.3855 40.1005 49.6855C41.4005 50.9855 42.9439 52.0168 44.6424 52.7203C46.341 53.4239 48.1615 53.786 50 53.786C51.8385 53.786 53.659 53.4239 55.3576 52.7203C57.0561 52.0168 58.5995 50.9855 59.8995 49.6855C61.1995 48.3855 62.2307 46.8421 62.9343 45.1436C63.6379 43.445 64 41.6245 64 39.786C64 37.9475 63.6379 36.127 62.9343 34.4284C62.2307 32.7299 61.1995 31.1865 59.8995 29.8865C58.5995 28.5865 57.0561 27.5553 55.3576 26.8517C53.659 26.1481 51.8385 25.786 50 25.786Z" fill="#BBDEFB"/>
<path d="M14 50C14 54.418 17.582 58 22 58H72C76.418 58 80 54.418 80 50V48C80 43.582 76.418 40 72 40H22C17.582 40 14 43.582 14 48V50Z" fill="#BBDEFB"/>
<path d="M46 68H50V86H46V68Z" fill="#2196F3"/>
<path d="M56.7712 79.8381L54.7428 83.2857L39.2288 74.1578L41.2572 70.7103L56.7712 79.8381Z" fill="#2196F3"/>
<path d="M54.8686 70.8506L56.8254 74.3347L41.1314 83.1494L39.1746 79.6653L54.8686 70.8506Z" fill="#2196F3"/>
<path d="M20 62H24V80H20V62Z" fill="#2196F3"/>
<path d="M30.7742 73.837L28.7474 77.2855L13.2292 68.165L15.256 64.7165L30.7742 73.837Z" fill="#2196F3"/>
<path d="M28.8686 64.8506L30.8254 68.3347L15.1314 77.1494L13.1746 73.6653L28.8686 64.8506Z" fill="#2196F3"/>
<path d="M72 62H76V80H72V62Z" fill="#2196F3"/>
<path d="M82.7733 73.8402L80.7456 77.2882L65.2296 68.1639L67.2572 64.7159L82.7733 73.8402Z" fill="#2196F3"/>
<path d="M80.8666 64.8506L82.8234 68.3347L67.1277 77.1503L65.1708 73.6663L80.8666 64.8506Z" fill="#2196F3"/>
</svg>
