<svg width="96" height="96" viewBox="0 0 96 96" fill="none" xmlns="http://www.w3.org/2000/svg">
<path d="M16 14.002H48V46H16V14.002Z" fill="#FF9800"/>
<path d="M53.9995 30.0016L32.0004 52.0015L10.0005 30.0024L31.9996 8.0025L53.9995 30.0016Z" fill="#FF9800"/>
<path d="M20 30C20 36.628 25.372 42 32 42C38.628 42 44 36.628 44 30C44 23.372 38.628 18 32 18C25.372 18 20 23.372 20 30Z" fill="#FFEB3B"/>
<path d="M62 24C60.1615 24 58.341 24.3621 56.6424 25.0657C54.9439 25.7693 53.4005 26.8005 52.1005 28.1005C50.8005 29.4005 49.7693 30.9439 49.0657 32.6424C48.3621 34.341 48 36.1615 48 38C48 39.8385 48.3621 41.659 49.0657 43.3576C49.7693 45.0561 50.8005 46.5995 52.1005 47.8995C53.4005 49.1995 54.9439 50.2307 56.6424 50.9343C58.341 51.6379 60.1615 52 62 52C63.8385 52 65.659 51.6379 67.3576 50.9343C69.0561 50.2307 70.5995 49.1995 71.8995 47.8995C73.1995 46.5995 74.2307 45.0561 74.9343 43.3576C75.6379 41.659 76 39.8385 76 38C76 36.1615 75.6379 34.341 74.9343 32.6424C74.2307 30.9439 73.1995 29.4005 71.8995 28.1005C70.5995 26.8005 69.0561 25.7693 67.3576 25.0657C65.659 24.3621 63.8385 24 62 24Z" fill="#BBDEFB"/>
<path d="M74 40C70.8174 40 67.7652 41.2643 65.5147 43.5147C63.2643 45.7652 62 48.8174 62 52C62 55.1826 63.2643 58.2348 65.5147 60.4853C67.7652 62.7357 70.8174 64 74 64C77.1826 64 80.2348 62.7357 82.4853 60.4853C84.7357 58.2348 86 55.1826 86 52C86 48.8174 84.7357 45.7652 82.4853 43.5147C80.2348 41.2643 77.1826 40 74 40ZM30 40C26.8174 40 23.7652 41.2643 21.5147 43.5147C19.2643 45.7652 18 48.8174 18 52C18 55.1826 19.2643 58.2348 21.5147 60.4853C23.7652 62.7357 26.8174 64 30 64C33.1826 64 36.2348 62.7357 38.4853 60.4853C40.7357 58.2348 42 55.1826 42 52C42 48.8174 40.7357 45.7652 38.4853 43.5147C36.2348 41.2643 33.1826 40 30 40Z" fill="#BBDEFB"/>
<path d="M41 28C38.0826 28 35.2847 29.1589 33.2218 31.2218C31.1589 33.2847 30 36.0826 30 39C30 41.9174 31.1589 44.7153 33.2218 46.7782C35.2847 48.8411 38.0826 50 41 50C43.9174 50 46.7153 48.8411 48.7782 46.7782C50.8411 44.7153 52 41.9174 52 39C52 36.0826 50.8411 33.2847 48.7782 31.2218C46.7153 29.1589 43.9174 28 41 28Z" fill="#BBDEFB"/>
<path d="M47 33.788C43.5522 33.788 40.2456 35.1576 37.8076 37.5956C35.3696 40.0336 34 43.3402 34 46.788C34 50.2358 35.3696 53.5424 37.8076 55.9804C40.2456 58.4184 43.5522 59.788 47 59.788C50.4478 59.788 53.7544 58.4184 56.1924 55.9804C58.6304 53.5424 60 50.2358 60 46.788C60 43.3402 58.6304 40.0336 56.1924 37.5956C53.7544 35.1576 50.4478 33.788 47 33.788Z" fill="#BBDEFB"/>
<path d="M23.25 57.002C23.25 60.868 26.384 64 30.25 64H74C77.868 64 81 60.868 81 57.002V55.252C81 51.386 77.868 48.252 74 48.252H30.25C26.384 48.252 23.25 51.386 23.25 55.252V57.002Z" fill="#BBDEFB"/>
<path d="M73.8979 80.304C71.6319 82.568 67.9599 82.568 65.6939 80.304C63.4299 78.038 63.4299 74.366 65.6939 72.102C67.9599 69.838 77.9999 68.004 77.9999 68.004C77.9999 68.004 76.1619 78.042 73.8979 80.304ZM31.8979 80.304C29.6339 82.568 25.9619 82.568 23.6959 80.304C21.4299 78.038 21.4319 74.366 23.6959 72.102C25.9599 69.838 35.9999 68.004 35.9999 68.004C35.9999 68.004 34.1619 78.042 31.8979 80.304Z" fill="#2196F3"/>
<path d="M43.998 86L47.998 72H41.998L49.998 56H57.998L50.808 68H57.998L43.998 86Z" fill="#D500F9"/>
</svg>
