<svg width="24" height="24" viewBox="0 0 24 24" fill="none" xmlns="http://www.w3.org/2000/svg">
<path d="M18 0C15.7902 0 14 1.7902 14 4H16C16 2.8098 16.8098 2 18 2C19.1902 2 20 2.8098 20 4C20 5.1902 19.1902 6 18 6H0V8H18C20.2098 8 22 6.2098 22 4C22 1.7902 20.2098 0 18 0ZM0 11V13H19.5C20.8386 13 22 14.1614 22 15.5C22 16.8386 20.8386 18 19.5 18C18.1614 18 17 16.8386 17 15.5H15C15 17.9614 17.0386 20 19.5 20C21.9614 20 24 17.9614 24 15.5C24 13.0386 21.9614 11 19.5 11H0ZM0 16V18H7.90039C9.21891 18 10 18.8098 10 20C10 21.1902 9.1902 22 8 22C6.8098 22 6 21.1902 6 20H4C4 22.2098 5.7902 24 8 24C10.2098 24 12 22.2098 12 20C12 17.7902 10.1819 16 7.90039 16H0Z" fill="white"/>
</svg>
