<svg width="96" height="96" viewBox="0 0 96 96" fill="none" xmlns="http://www.w3.org/2000/svg">
<path d="M50 45L58 37L50 29V20H41L33 12L25 20H16V29L8 37L16 45V54H25L33 62L41 54H50V45Z" fill="#FF9800"/>
<path d="M20 37C20 44.2 25.8 50 33 50C40.2 50 46 44.2 46 37C46 29.8 40.2 24 33 24C25.8 24 20 29.8 20 37Z" fill="#FFEB3B"/>
<path d="M59 34C49.6 34 42 41.6 42 51C42 60.4 49.6 68 59 68C68.4 68 76 60.4 76 51C76 41.6 68.4 34 59 34Z" fill="#BBDEFB"/>
<path d="M74 53.8C66.2 53.8 60 60 60 67.8C60 75.6 66.2 81.8 74 81.8C81.8 81.8 88 75.6 88 67.8C88 60 81.8 53.8 74 53.8ZM22 54C14.2 54 8 60.2 8 68C8 75.8 14.2 82 22 82C29.8 82 36 75.8 36 68C36 60.2 29.8 54 22 54Z" fill="#BBDEFB"/>
<path d="M35 40C27.8 40 22 45.8 22 53C22 60.2 27.8 66 35 66C42.2 66 48 60.2 48 53C48 45.8 42.2 40 35 40Z" fill="#BBDEFB"/>
<path d="M50 49.8C42.2 49.8 36 56 36 63.8C36 71.6 42.2 77.8 50 77.8C57.8 77.8 64 71.6 64 63.8C64 56 57.8 49.8 50 49.8Z" fill="#BBDEFB"/>
<path d="M14 74C14 78.4 17.6 82 22 82H72C76.4 82 80 78.4 80 74V72C80 67.6 76.4 64 72 64H22C17.6 64 14 67.6 14 72V74Z" fill="#BBDEFB"/>
</svg>
