<svg width="96" height="96" viewBox="0 0 96 96" fill="none" xmlns="http://www.w3.org/2000/svg">
<path d="M36 8C30.6957 8 25.6086 10.1071 21.8579 13.8579C18.1071 17.6086 16 22.6957 16 28C16 33.3043 18.1071 38.3914 21.8579 42.1421C25.6086 45.8929 30.6957 48 36 48C41.3043 48 46.3914 45.8929 50.1421 42.1421C53.8929 38.3914 56 33.3043 56 28C56 22.6957 53.8929 17.6086 50.1421 13.8579C46.3914 10.1071 41.3043 8 36 8V8Z" fill="#FFE082"/>
<path d="M36.0001 8C29.4571 8 23.6651 11.157 20.0161 16.016C23.3581 13.506 27.4981 12 32.0001 12C43.0451 12 52.0001 20.955 52.0001 32C52.0001 36.502 50.4941 40.642 47.9841 43.984C52.8431 40.335 56.0001 34.543 56.0001 28C56.0001 16.955 47.0451 8 36.0001 8Z" fill="#FFD54F"/>
<path d="M25.5 28C24.837 28 24.2011 28.2634 23.7322 28.7322C23.2634 29.2011 23 29.837 23 30.5C23 31.163 23.2634 31.7989 23.7322 32.2678C24.2011 32.7366 24.837 33 25.5 33C26.163 33 26.7989 32.7366 27.2678 32.2678C27.7366 31.7989 28 31.163 28 30.5C28 29.837 27.7366 29.2011 27.2678 28.7322C26.7989 28.2634 26.163 28 25.5 28V28ZM48.5 33C47.837 33 47.2011 33.2634 46.7322 33.7322C46.2634 34.2011 46 34.837 46 35.5C46 36.163 46.2634 36.7989 46.7322 37.2678C47.2011 37.7366 47.837 38 48.5 38C49.163 38 49.7989 37.7366 50.2678 37.2678C50.7366 36.7989 51 36.163 51 35.5C51 34.837 50.7366 34.2011 50.2678 33.7322C49.7989 33.2634 49.163 33 48.5 33V33ZM33 15C31.9391 15 30.9217 15.4214 30.1716 16.1716C29.4214 16.9217 29 17.9391 29 19C29 20.0609 29.4214 21.0783 30.1716 21.8284C30.9217 22.5786 31.9391 23 33 23C34.0609 23 35.0783 22.5786 35.8284 21.8284C36.5786 21.0783 37 20.0609 37 19C37 17.9391 36.5786 16.9217 35.8284 16.1716C35.0783 15.4214 34.0609 15 33 15V15ZM34.5 33C33.5717 33 32.6815 33.3687 32.0251 34.0251C31.3687 34.6815 31 35.5717 31 36.5C31 37.4283 31.3687 38.3185 32.0251 38.9749C32.6815 39.6312 33.5717 40 34.5 40C35.4283 40 36.3185 39.6312 36.9749 38.9749C37.6313 38.3185 38 37.4283 38 36.5C38 35.5717 37.6313 34.6815 36.9749 34.0251C36.3185 33.3687 35.4283 33 34.5 33Z" fill="#FFCA28"/>
<path d="M34.5 22.5C32.567 22.5 31 20.933 31 19C31 17.067 32.567 15.5 34.5 15.5C34.668 15.5 34.828 15.526 34.99 15.549C34.401 15.209 33.729 15 33 15C30.791 15 29 16.791 29 19C29 21.209 30.791 23 33 23C33.729 23 34.401 22.791 34.99 22.451C34.828 22.474 34.668 22.5 34.5 22.5ZM48 35.5C48 34.476 48.618 33.597 49.5 33.211C49.193 33.077 48.856 33 48.5 33C47.119 33 46 34.119 46 35.5C46 36.881 47.119 38 48.5 38C48.856 38 49.193 37.923 49.5 37.789C48.618 37.402 48 36.524 48 35.5ZM25 30.5C25 29.476 25.618 28.597 26.5 28.211C26.193 28.077 25.856 28 25.5 28C24.119 28 23 29.119 23 30.5C23 31.881 24.119 33 25.5 33C25.856 33 26.193 32.923 26.5 32.789C25.618 32.402 25 31.524 25 30.5ZM33 36.5C33 34.917 34.058 33.596 35.5 33.162C35.182 33.066 34.85 33 34.5 33C32.567 33 31 34.567 31 36.5C31 38.433 32.567 40 34.5 40C34.85 40 35.182 39.934 35.5 39.838C34.058 39.404 33 38.083 33 36.5Z" fill="#E5B223"/>
<path d="M75.8 40.2C76 39.4 76 38.8 76 38C76 30.2 69.8 24 62 24C56.4 24 51.6 27.2 49.4 32C47.4 29.6 44.4 28 41 28C35 28 30 33 30 39C30 39.4 30 39.6 30 40C23.4 40 18 45.4 18 52C18 58.6 23.4 64 30 64H30.2H74C80.6 64 86 58.6 86 52C86 46 81.6 41 75.8 40.2Z" fill="#BBDEFB"/>
<path d="M73.8 80.4C71.6 82.6 67.7999 82.6 65.5999 80.4C63.3999 78.2 63.3999 74.4 65.5999 72.2C67.9999 69.8 78 68 78 68C78 68 76.2 78 73.8 80.4ZM56 76C56 76 45.9999 77.8 43.5999 80.2C41.3999 82.4 41.3999 86.2 43.5999 88.4C45.7999 90.6 49.5999 90.6 51.7999 88.4C54.1999 86 56 76 56 76ZM36 68C36 68 26 69.8 23.6 72.2C21.4 74.4 21.4 78.2 23.6 80.4C25.8 82.6 29.5999 82.6 31.7999 80.4C34.1999 78 36 68 36 68Z" fill="#2196F3"/>
</svg>
